<svg xmlns="http://www.w3.org/2000/svg" width="220.009" height="131.565" viewBox="0 0 220.009 131.565"><defs><style>.a,.b{fill:#fff;}.b{fill-rule:evenodd;}</style></defs><g transform="translate(-1.668 -1.1)"><path class="a" d="M67,48.882a22.14,22.14,0,0,0,.8,6.512,39.166,39.166,0,0,0,2.342,5.268,3.183,3.183,0,0,1,.512,1.683,2.9,2.9,0,0,1-1.39,2.2l-4.61,3.073a3.508,3.508,0,0,1-1.9.659,3.367,3.367,0,0,1-2.2-1.024,22.637,22.637,0,0,1-2.634-3.439c-.732-1.244-1.463-2.634-2.268-4.317a27.031,27.031,0,0,1-21.513,10.1C28,69.59,23.1,67.834,19.515,64.321S14.1,56.126,14.1,50.272c0-6.22,2.2-11.269,6.659-15.074s10.391-5.707,17.927-5.707a57.935,57.935,0,0,1,7.756.585c2.707.366,5.488.951,8.415,1.61V26.345c0-5.561-1.171-9.439-3.439-11.708-2.342-2.268-6.293-3.366-11.927-3.366a33.293,33.293,0,0,0-7.9.951,58.3,58.3,0,0,0-7.9,2.488,21,21,0,0,1-2.561.951,4.488,4.488,0,0,1-1.171.22c-1.024,0-1.537-.732-1.537-2.268V10.027a4.63,4.63,0,0,1,.512-2.561,5.479,5.479,0,0,1,2.049-1.537A42.127,42.127,0,0,1,30.2,2.637a44.363,44.363,0,0,1,11.415-1.39c8.708,0,15.074,1.976,19.171,5.927,4.024,3.951,6.073,9.952,6.073,18V48.882ZM37.3,60a23.715,23.715,0,0,0,7.537-1.317A16.306,16.306,0,0,0,51.784,54a11.615,11.615,0,0,0,2.488-4.683A26.27,26.27,0,0,0,55,42.955V39.882a61.11,61.11,0,0,0-6.732-1.244,55.136,55.136,0,0,0-6.878-.439c-4.9,0-8.488.951-10.9,2.927s-3.585,4.756-3.585,8.415c0,3.439.878,6,2.707,7.756C31.369,59.126,33.93,60,37.3,60Zm58.758,7.9a4.085,4.085,0,0,1-2.781-.732,5.964,5.964,0,0,1-1.537-2.854L74.541,7.759a12.818,12.818,0,0,1-.659-2.927A1.605,1.605,0,0,1,75.638,3h7.171a4.056,4.056,0,0,1,2.854.732,5.987,5.987,0,0,1,1.463,2.854l12.293,48.44,11.415-48.44a5.133,5.133,0,0,1,1.39-2.854A5.033,5.033,0,0,1,115.152,3h5.854a4.4,4.4,0,0,1,2.927.732,4.93,4.93,0,0,1,1.39,2.854l11.561,49.026L149.543,6.588a6.275,6.275,0,0,1,1.463-2.854A4.774,4.774,0,0,1,153.86,3h6.805a1.627,1.627,0,0,1,1.829,1.829A7.3,7.3,0,0,1,162.348,6a10.408,10.408,0,0,1-.512,1.829L144.2,64.394a5.611,5.611,0,0,1-1.537,2.854,4.681,4.681,0,0,1-2.781.732h-6.293a4.4,4.4,0,0,1-2.927-.732,5.187,5.187,0,0,1-1.39-2.927l-11.342-47.2L106.664,64.248a5.711,5.711,0,0,1-1.39,2.927,4.536,4.536,0,0,1-2.927.732Zm94.027,1.976a48.421,48.421,0,0,1-11.269-1.317,33.288,33.288,0,0,1-8.415-2.927,5.272,5.272,0,0,1-2.268-2.049,5.165,5.165,0,0,1-.439-2.049V57.809c0-1.537.585-2.268,1.683-2.268a4.143,4.143,0,0,1,1.317.22c.439.146,1.1.439,1.829.732a39.8,39.8,0,0,0,8.049,2.561,43.943,43.943,0,0,0,8.708.878c4.61,0,8.2-.8,10.683-2.415a7.88,7.88,0,0,0,3.805-6.951,7.126,7.126,0,0,0-1.976-5.122c-1.317-1.39-3.8-2.634-7.39-3.8l-10.61-3.293c-5.342-1.683-9.293-4.171-11.708-7.464a17.433,17.433,0,0,1-3.659-10.61,16.285,16.285,0,0,1,1.976-8.122,18.814,18.814,0,0,1,5.268-6,23.224,23.224,0,0,1,7.61-3.8A31.892,31.892,0,0,1,192.5,1.1a36.734,36.734,0,0,1,4.9.293c1.683.22,3.22.512,4.756.8,1.463.366,2.854.732,4.171,1.171A15.97,15.97,0,0,1,209.4,4.685a6.328,6.328,0,0,1,2.2,1.829,3.943,3.943,0,0,1,.659,2.415v3.439c0,1.537-.585,2.342-1.683,2.342a7.611,7.611,0,0,1-2.781-.878,33.475,33.475,0,0,0-14.049-2.854c-4.171,0-7.464.659-9.732,2.049a7.066,7.066,0,0,0-3.439,6.512,6.91,6.91,0,0,0,2.2,5.2c1.463,1.39,4.171,2.781,8.049,4.025L201.2,32.052c5.268,1.683,9.073,4.024,11.342,7.025a16.558,16.558,0,0,1,3.366,10.244,18.811,18.811,0,0,1-1.9,8.488,19.679,19.679,0,0,1-5.342,6.439,23.587,23.587,0,0,1-8.122,4.1A34.8,34.8,0,0,1,190.081,69.882Z" transform="translate(-3.335)"/><g transform="translate(1.668 83.121)"><path class="b" d="M200.575,137.112c-24.074,17.781-59.05,27.22-89.124,27.22A161.236,161.236,0,0,1,2.643,122.843c-2.268-2.049-.22-4.829,2.488-3.22,31.025,18,69.295,28.9,108.881,28.9a217.275,217.275,0,0,0,83.051-16.976C201.087,129.722,204.526,134.185,200.575,137.112Z" transform="translate(-1.668 -114.789)"/><path class="b" d="M276.144,124.1c-3.073-3.951-20.342-1.9-28.172-.951-2.342.293-2.707-1.756-.585-3.293,13.756-9.659,36.367-6.878,39-3.659,2.634,3.293-.732,25.9-13.61,36.733-1.976,1.683-3.878.8-3-1.39C272.7,144.3,279.217,127.979,276.144,124.1Z" transform="translate(-67.212 -113.192)"/></g></g></svg>