<svg xmlns="http://www.w3.org/2000/svg" width="159.614" height="159.614" viewBox="0 0 159.614 159.614"><defs><style>.a{fill:#fff;fill-rule:evenodd;}</style></defs><g transform="translate(-4 -4)"><path class="a" d="M48.769,122.876l-4.03-4.03L9.7,153.884V135.112H4v25.652a2.849,2.849,0,0,0,2.85,2.85H32.5v-5.7H13.731ZM160.764,4H135.112V9.7h18.772L118.845,44.739l4.03,4.03,35.038-35.038V32.5h5.7V6.85A2.849,2.849,0,0,0,160.764,4ZM92.358,137.962h45.6v-45.6h-45.6Zm51.3-48.454v51.3a2.849,2.849,0,0,1-2.85,2.85h-51.3a2.849,2.849,0,0,1-2.85-2.85v-51.3a2.849,2.849,0,0,1,2.85-2.85h51.3a2.849,2.849,0,0,1,2.85,2.85ZM29.652,75.256h45.6v-45.6h-45.6ZM80.957,26.8v51.3a2.849,2.849,0,0,1-2.85,2.85H26.8a2.849,2.849,0,0,1-2.85-2.85V26.8a2.849,2.849,0,0,1,2.85-2.85h51.3a2.849,2.849,0,0,1,2.85,2.85Zm-2.85,59.855H26.8a2.849,2.849,0,0,0-2.85,2.85v42.061l5.7-5.7V92.358h45.6v45.6H41.743l-5.7,5.7H78.107a2.849,2.849,0,0,0,2.85-2.85v-51.3a2.849,2.849,0,0,0-2.85-2.85Zm59.855-44.914,5.7-5.7V78.107a2.849,2.849,0,0,1-2.85,2.85h-51.3a2.849,2.849,0,0,1-2.85-2.85V26.8a2.849,2.849,0,0,1,2.85-2.85h42.064l-5.7,5.7H92.358v45.6h45.6Z"/></g></svg>