<svg xmlns="http://www.w3.org/2000/svg" width="1194.957" height="1185.414" viewBox="0 0 1194.957 1185.414"><defs><style>.a{opacity:0.9;}.a,.c{isolation:isolate;}.b,.d{fill:#fff;}.c{opacity:0.7;}.d{opacity:0.4;}.e{fill:#05a0d1;}.f{fill:#f9b233;}.g{fill:#e94e1b;}.h{fill:#ededed;}.i{fill:#36a9e1;}</style></defs><g transform="translate(-362.521 -106.321)"><g class="a" transform="translate(395.136 137.656)"><g transform="translate(24.112 12.29)"><path class="b" d="M552.376,1068.818c-291.275,0-528.264-236.971-528.264-528.264S261.1,12.29,552.376,12.29c291.293,0,528.264,236.971,528.264,528.264S843.669,1068.818,552.376,1068.818Zm0-1051.993c-288.79,0-523.729,234.939-523.729,523.729s234.939,523.729,523.729,523.729,523.729-234.939,523.729-523.729S841.166,16.824,552.376,16.824Z" transform="translate(-24.112 -12.29)"/></g><g transform="translate(1051.148 513.329)"><path class="b" d="M135.2,67.139a27.234,27.234,0,1,0-27.243,27.243A27.228,27.228,0,0,0,135.2,67.139Z" transform="translate(-80.736 -39.914)"/></g><g transform="translate(443.676 1039.053)"><path class="b" d="M87.256,88.923A20.006,20.006,0,1,0,67.25,108.929,20,20,0,0,0,87.256,88.923Z" transform="translate(-47.244 -68.899)"/></g><g transform="translate(866.559 114.388)"><path class="b" d="M110.589,37.925A20.015,20.015,0,1,0,90.583,57.949,20.01,20.01,0,0,0,110.589,37.925Z" transform="translate(-70.559 -17.919)"/></g></g><g class="c" transform="translate(395.871 205.816)"><g transform="translate(611.539 882.162)"><path class="b" d="M190.7,89.321a31.932,31.932,0,1,0-31.932,31.913A31.93,31.93,0,0,0,190.7,89.321Z" transform="translate(-126.84 -57.389)"/></g><g transform="translate(944.318 649.573)"><circle class="b" cx="19.928" cy="19.928" r="19.928"/></g><g transform="translate(173.726 161.931)"><path class="b" d="M142.459,37.432A19.93,19.93,0,1,0,122.52,57.371,19.941,19.941,0,0,0,142.459,37.432Z" transform="translate(-102.599 -17.511)"/></g><g transform="translate(878.099 143.87)"><path class="b" d="M181.459,36.432A19.93,19.93,0,1,0,161.52,56.371,19.94,19.94,0,0,0,181.459,36.432Z" transform="translate(-141.599 -16.511)"/></g><g transform="translate(98.43 9.046)"><path class="b" d="M557.555,927.224c-3.5,0-6.99-.036-10.457-.126l.108-4.515c6,.145,12.047.181,18.061.054l.072,4.515C562.757,927.206,560.156,927.224,557.555,927.224Zm26.008-.722-.235-4.515c6.032-.325,12.029-.795,18.007-1.355l.434,4.5C595.736,925.689,589.667,926.159,583.563,926.5Zm-54.688-.163q-9.157-.569-18.205-1.481l.469-4.5q8.94.921,18.007,1.481Zm91.027-3.323-.614-4.479q8.994-1.219,17.844-2.781l.795,4.443C631.948,921.264,625.952,922.185,619.9,923.016Zm-127.329-.361c-6.05-.849-12.065-1.842-18.025-2.926l.813-4.443c5.906,1.084,11.848,2.041,17.844,2.908Zm163.252-5.978-.975-4.407c5.906-1.282,11.776-2.691,17.573-4.208l1.138,4.371Q664.756,914.735,655.824,916.677Zm-199.139-.56q-8.94-2.032-17.736-4.371l1.174-4.353q8.7,2.33,17.537,4.3Zm234.448-8.633-1.3-4.317q8.669-2.628,17.23-5.617l1.481,4.28Q699.929,904.811,691.133,907.484Zm-269.7-.777c-5.834-1.824-11.6-3.739-17.339-5.761l1.517-4.244q8.507,3.007,17.158,5.707ZM725.7,895.455l-1.662-4.19q8.426-3.332,16.724-6.972l1.806,4.118Q734.227,892.123,725.7,895.455Zm-338.659-.939q-8.48-3.386-16.779-7.1l1.842-4.118q8.209,3.657,16.6,7.026Zm372.108-13.8-1.987-4.064q8.127-3.982,16.092-8.272l2.149,3.955Q767.359,876.672,759.151,880.717Zm-405.34-1.084c-5.454-2.673-10.836-5.491-16.164-8.4l2.167-3.955q7.911,4.308,16,8.308Zm437.507-16.291-2.312-3.883q7.8-4.633,15.388-9.536l2.438,3.793Q799.192,858.674,791.317,863.343Zm-469.474-1.156q-7.8-4.687-15.442-9.681l2.474-3.775q7.531,4.931,15.3,9.572Zm500.123-18.711-2.582-3.684c4.912-3.468,9.807-7.08,14.557-10.728l2.745,3.576C831.881,836.342,826.951,839.972,821.966,843.476Zm-530.61-1.264q-7.423-5.283-14.647-10.873l2.781-3.576q7.125,5.554,14.485,10.764Zm559.58-20.951-2.89-3.468c4.642-3.865,9.193-7.784,13.654-11.848l3.034,3.359C860.328,813.3,855.668,817.324,850.936,821.261Zm-588.4-1.372q-6.99-5.852-13.744-11.992l3.034-3.341q6.692,6.069,13.6,11.884Zm615.532-23.046L874.9,793.61q6.475-6.312,12.7-12.877l3.287,3.107Q884.574,790.476,878.063,796.843ZM235.53,795.362q-6.5-6.394-12.751-13.058l3.305-3.07q6.177,6.556,12.625,12.914Zm667.62-25-3.4-2.98q5.96-6.8,11.631-13.817l3.5,2.836Q909.173,763.5,903.15,770.366Zm-692.58-1.607c-4.01-4.606-7.893-9.265-11.7-14.015l3.522-2.836q5.662,7.071,11.577,13.889Zm715.481-26.766-3.612-2.709q5.392-7.233,10.493-14.684l3.721,2.565Q931.505,734.668,926.051,741.992Zm-738.31-1.734c-3.594-4.895-7.116-9.879-10.548-14.9l3.739-2.547q5.093,7.5,10.457,14.774ZM946.658,711.9l-3.829-2.384q4.795-7.64,9.283-15.478l3.919,2.24Q951.508,704.191,946.658,711.9Zm-779.4-1.9q-4.849-7.748-9.337-15.713l3.919-2.221q4.47,7.884,9.247,15.569Zm797.532-29.674-4.01-2.1c2.781-5.328,5.454-10.692,8.037-16.146l4.082,1.914Q969,672.268,964.792,680.332Zm-815.574-2.1q-4.172-8.127-8.055-16.417l4.1-1.914c2.565,5.491,5.2,10.891,7.983,16.273Zm831.125-30.83-4.154-1.77q3.522-8.29,6.718-16.724l4.208,1.607Q983.891,639.027,980.342,647.407ZM133.793,645.1c-2.348-5.581-4.605-11.324-6.719-17.013l4.226-1.571c2.1,5.635,4.335,11.306,6.665,16.851Zm859.426-31.769-4.281-1.427q2.845-8.561,5.364-17.248l4.334,1.246Q996.091,604.675,993.219,613.326Zm-872.177-2.51q-2.845-8.669-5.328-17.465l4.335-1.228c1.644,5.8,3.4,11.577,5.274,17.284ZM1003.37,578.27l-4.389-1.084q2.167-8.75,3.973-17.627l4.425.9Q1005.536,569.429,1003.37,578.27Zm-892.279-2.583q-2.113-8.859-3.9-17.826l4.425-.885c1.174,5.924,2.474,11.812,3.865,17.664Zm899.575-33.178-4.461-.722q1.463-8.886,2.565-17.88l4.479.542Q1012.138,533.551,1010.666,542.51Zm-906.673-2.6c-.939-6.014-1.752-12.029-2.456-18.079l4.479-.542q1.056,9.021,2.438,17.9Zm911.116-33.593-4.515-.379c.506-5.978.867-11.974,1.138-18.025l4.515.181C1015.976,494.2,1015.6,500.283,1015.109,506.316ZM99.784,503.661c-.451-6.032-.813-12.1-1.029-18.205l4.515-.181c.217,6.05.578,12.065,1.011,18.061Zm916.878-33.81h-4.515V468.1c0-6.05-.108-12.065-.343-18.079l4.515-.163q.352,9.075.343,18.241ZM102.945,467.2H98.43q.027-9.157.4-18.241l4.515.181C103.09,455.131,102.963,461.164,102.945,467.2ZM1010.738,432q-.7-9.049-1.77-17.989l4.479-.524q1.083,9.021,1.788,18.151Zm-906.312-.885-4.5-.361c.488-6.086,1.084-12.137,1.824-18.151l4.479.542C105.51,419.082,104.914,425.1,104.426,431.11Zm902.05-34.984c-.939-5.96-2-11.9-3.179-17.79l4.425-.885c1.192,5.942,2.257,11.938,3.233,17.971Zm-897.733-.867-4.461-.722c.975-6.032,2.059-12.01,3.269-17.971l4.425.9Q110.187,386.3,108.743,395.259ZM999.4,360.709q-2.141-8.8-4.606-17.483L999.125,342c1.68,5.834,3.215,11.7,4.66,17.645Zm-883.483-.867-4.389-1.084q2.167-8.886,4.7-17.627l4.334,1.246Q118.062,351.019,115.913,359.842Zm873.586-33.9q-2.845-8.615-6.014-17.1l4.226-1.571c2.149,5.707,4.154,11.469,6.068,17.266Zm-863.616-.831-4.3-1.409q2.872-8.7,6.087-17.212l4.226,1.589Q128.727,316.532,125.882,325.111ZM976.8,292.024q-3.522-8.344-7.351-16.544l4.082-1.914c2.583,5.509,5.075,11.089,7.423,16.724Zm-838.223-.668-4.172-1.752q3.549-8.4,7.423-16.634l4.1,1.933Q142.083,283.029,138.579,291.355ZM961.45,259.243q-4.172-8.046-8.651-15.894l3.919-2.24q4.525,7.938,8.724,16.056Zm-807.555-.506-3.991-2.1c2.8-5.382,5.707-10.728,8.723-15.984l3.9,2.24Q158.085,250.7,153.895,258.737Zm789.639-30.92q-4.795-7.694-9.879-15.171l3.739-2.529q5.12,7.558,9.97,15.3Zm-771.723-.4-3.829-2.4c3.215-5.165,6.556-10.24,9.97-15.261l3.721,2.547C178.3,217.27,174.99,222.309,171.811,227.42ZM923.2,197.908q-5.391-7.26-11.053-14.322l3.54-2.817c3.793,4.75,7.513,9.554,11.144,14.467ZM192.13,197.6l-3.63-2.709c3.63-4.876,7.333-9.681,11.162-14.413l3.5,2.836Q197.5,190.332,192.13,197.6Zm708.437-27.868q-5.96-6.827-12.137-13.4l3.269-3.106c4.19,4.443,8.272,8.94,12.263,13.546Zm-685.807-.271-3.4-2.962q5.987-6.908,12.263-13.528l3.269,3.106C222.761,160.45,218.733,164.911,214.76,169.463Zm661.009-26.044q-6.448-6.312-13.148-12.39l3.034-3.341c4.5,4.082,8.94,8.254,13.275,12.516ZM239.576,143.2l-3.161-3.233q6.5-6.366,13.293-12.516l3.034,3.359Q246.023,136.881,239.576,143.2ZM849,119.181q-6.935-5.77-14.088-11.306l2.746-3.576q7.233,5.554,14.232,11.433Zm-582.625-.217-2.89-3.468q7.017-5.852,14.232-11.433l2.763,3.576Q273.331,113.167,266.378,118.964ZM820.413,97.129q-7.369-5.229-14.936-10.168l2.474-3.775q7.64,4.985,15.063,10.259Zm-525.391-.217L292.4,93.228q7.477-5.283,15.117-10.277l2.474,3.793Q302.382,91.674,295.023,96.912Zm495.157-19.47q-7.721-4.633-15.659-8.94l2.149-3.973q8.019,4.362,15.821,9.03Zm-464.832-.271-2.312-3.883q7.83-4.66,15.894-9.03l2.149,3.973C335.768,71.1,330.512,74.1,325.347,77.172ZM758.5,60.212c-5.364-2.673-10.818-5.22-16.309-7.658l1.824-4.136q8.344,3.712,16.489,7.748Zm-401.367-.289-1.987-4.046c5.364-2.655,10.945-5.256,16.562-7.748l1.842,4.136C367.97,54.722,362.462,57.3,357.134,59.923Zm368.46-14.376q-8.4-3.332-16.941-6.357l1.5-4.244q8.642,3.034,17.1,6.394Zm-335.354-.289-1.644-4.19q8.479-3.359,17.122-6.412l1.5,4.28Q398.656,41.917,390.239,45.258ZM691.513,33.537q-8.615-2.628-17.375-4.967l1.138-4.371q8.859,2.357,17.555,5.021Zm-267.084-.253-1.319-4.317c5.8-1.77,11.649-3.45,17.555-4.985l1.138,4.371Q433.053,30.656,424.429,33.284Zm232.154-8.976c-5.87-1.3-11.775-2.51-17.718-3.576l.795-4.443c6.014,1.084,11.974,2.294,17.9,3.594Zm-197.207-.2L458.4,19.7c5.834-1.282,11.848-2.492,17.9-3.576l.795,4.461C471.134,21.634,465.246,22.826,459.376,24.109Zm161.645-6.231c-5.924-.831-11.92-1.553-17.934-2.149l.433-4.5q9.13.921,18.133,2.167Zm-126.083-.108-.614-4.479c6-.831,12.047-1.535,18.115-2.131l.452,4.5Q503.842,16.523,494.938,17.769ZM585.08,14.3c-5.978-.361-11.992-.614-18.061-.722l.09-4.515c6.123.108,12.209.361,18.241.722ZM530.9,14.248l-.253-4.515q9.076-.515,18.224-.686l.09,4.515C542.908,13.67,536.875,13.9,530.9,14.248Z" transform="translate(-98.43 -9.046)"/></g></g><path class="d" d="M660.66,1129.945c-4.291,0-8.559-.044-12.806-.154l.133-5.512c7.343.176,14.752.22,22.117.066l.089,5.512C667.03,1129.922,663.845,1129.945,660.66,1129.945Zm31.848-.882-.288-5.512c7.387-.4,14.73-.97,22.051-1.654l.531,5.49C707.415,1128.07,699.984,1128.644,692.509,1129.063Zm-66.97-.2q-11.213-.694-22.294-1.808l.575-5.49q10.948,1.124,22.051,1.808Zm111.469-4.057-.752-5.468q11.014-1.488,21.851-3.4l.973,5.424C751.759,1122.669,744.416,1123.793,737.007,1124.807Zm-155.923-.441c-7.409-1.036-14.774-2.249-22.073-3.572l1-5.424c7.232,1.323,14.508,2.491,21.851,3.55Zm199.914-7.3-1.194-5.38c7.232-1.565,14.42-3.285,21.519-5.137l1.393,5.336Q791.935,1114.7,781,1117.068Zm-243.86-.684q-10.948-2.48-21.719-5.336l1.438-5.314q10.649,2.844,21.475,5.247Zm287.1-10.539-1.592-5.27q10.616-3.208,21.1-6.857l1.814,5.225Q835.007,1102.583,824.236,1105.846Zm-330.27-.948c-7.144-2.227-14.2-4.564-21.232-7.034l1.858-5.181q10.417,3.671,21.011,6.967Zm372.6-13.736-2.035-5.115q10.318-4.068,20.48-8.511l2.212,5.027Q877.007,1087.094,866.567,1091.161Zm-414.711-1.146q-10.384-4.134-20.546-8.665l2.256-5.027q10.052,4.465,20.325,8.577Zm455.672-16.845-2.433-4.961q9.952-4.862,19.706-10.1l2.632,4.829Q917.58,1068.231,907.528,1073.17Zm-496.367-1.323c-6.679-3.263-13.27-6.7-19.794-10.252l2.654-4.829q9.687,5.258,19.6,10.142Zm535.757-19.888-2.831-4.74q9.554-5.655,18.844-11.642l2.986,4.63Q956.561,1046.26,946.918,1051.959Zm-574.9-1.411q-9.555-5.722-18.91-11.818l3.03-4.608q9.223,6.019,18.733,11.686Zm612.435-22.842-3.162-4.5c6.015-4.233,12.009-8.643,17.826-13.1l3.362,4.366C996.592,1019,990.554,1023.429,984.45,1027.706Zm-649.768-1.543q-9.09-6.449-17.937-13.273l3.406-4.366q8.725,6.78,17.738,13.141Zm685.244-25.576-3.539-4.233c5.684-4.718,11.258-9.5,16.72-14.464l3.716,4.1C1031.426,990.863,1025.72,995.78,1019.925,1000.586Zm-720.542-1.676q-8.559-7.144-16.831-14.64l3.716-4.079q8.194,7.408,16.654,14.508Zm753.762-28.134-3.871-3.947q7.929-7.706,15.548-15.721l4.025,3.792Q1061.118,963,1053.145,970.777Zm-786.826-1.808q-7.963-7.805-15.614-15.941l4.047-3.748q7.564,8,15.46,15.765Zm817.546-30.515-4.158-3.638q7.3-8.3,14.243-16.867l4.291,3.461Q1091.241,930.076,1083.865,938.454Zm-848.111-1.962c-4.91-5.622-9.665-11.311-14.332-17.11l4.313-3.462q6.934,8.632,14.177,16.955Zm876.156-32.676-4.423-3.307q6.6-8.831,12.849-17.925l4.556,3.131Q1118.588,894.875,1111.909,903.816ZM207.8,901.7c-4.4-5.975-8.714-12.06-12.916-18.19l4.578-3.109q6.237,9.161,12.806,18.036Zm929.347-34.616-4.689-2.91q5.872-9.327,11.368-18.9l4.8,2.734Q1143.083,857.668,1137.144,867.083Zm-954.427-2.315q-5.938-9.459-11.434-19.182l4.8-2.712q5.474,9.624,11.324,19.006Zm976.632-36.225-4.91-2.558c3.406-6.5,6.679-13.053,9.842-19.711l5,2.337Q1164.5,818.7,1159.349,828.542Zm-998.727-2.558q-5.109-9.922-9.864-20.042l5.021-2.337c3.14,6.7,6.369,13.3,9.775,19.866Zm1017.769-37.637-5.087-2.161q4.313-10.12,8.227-20.417l5.153,1.962Q1182.738,778.118,1178.392,788.348ZM141.735,785.526c-2.875-6.813-5.64-13.824-8.227-20.77l5.175-1.918c2.565,6.879,5.308,13.8,8.161,20.571Zm1052.427-38.783L1188.919,745q3.484-10.451,6.569-21.056l5.308,1.521Q1197.678,736.181,1194.161,746.743ZM126.12,743.678q-3.483-10.583-6.524-21.321l5.308-1.5c2.013,7.078,4.158,14.133,6.458,21.1Zm1080.47-39.731-5.374-1.323q2.654-10.682,4.865-21.519l5.419,1.1Q1209.245,693.154,1206.591,703.947ZM113.934,700.794q-2.587-10.815-4.777-21.762l5.419-1.08c1.437,7.232,3.03,14.42,4.733,21.563Zm1101.592-40.5-5.463-.882q1.792-10.848,3.14-21.828l5.485.661Q1217.329,649.355,1215.526,660.291ZM105.242,657.116c-1.15-7.342-2.145-14.684-3.008-22.07l5.485-.661q1.294,11.013,2.986,21.85Zm1115.725-41.01-5.529-.463c.619-7.3,1.062-14.618,1.393-22l5.529.22C1222.028,601.311,1221.564,608.742,1220.967,616.106ZM100.089,612.865c-.553-7.364-1-14.772-1.261-22.225l5.529-.22c.265,7.386.708,14.728,1.238,22.048Zm1122.78-41.275h-5.529v-2.139c0-7.386-.133-14.728-.42-22.07l5.529-.2q.432,11.079.42,22.269ZM103.959,568.349H98.43q.033-11.178.487-22.269l5.529.22C104.136,553.62,103.981,560.985,103.959,568.349Zm1111.655-42.972q-.862-11.046-2.167-21.96l5.485-.639q1.327,11.013,2.19,22.159ZM105.773,524.3l-5.507-.441c.6-7.43,1.327-14.817,2.234-22.159l5.485.661C107.1,509.612,106.37,516.954,105.773,524.3Zm1104.622-42.708c-1.15-7.276-2.455-14.53-3.892-21.718l5.418-1.08c1.46,7.254,2.765,14.574,3.959,21.938ZM111.059,480.53l-5.463-.882c1.194-7.364,2.521-14.662,4-21.938l5.419,1.1Q112.828,469.594,111.059,480.53Zm1090.666-42.179q-2.621-10.749-5.64-21.343l5.308-1.5c2.057,7.122,3.937,14.287,5.706,21.541ZM119.839,437.293l-5.374-1.323q2.654-10.848,5.75-21.519l5.308,1.521Q122.471,426.522,119.839,437.293Zm1069.766-41.385q-3.484-10.517-7.365-20.88l5.175-1.918c2.632,6.967,5.087,14,7.431,21.078ZM132.047,394.894l-5.264-1.72q3.517-10.616,7.453-21.012l5.175,1.94Q135.531,384.421,132.047,394.894ZM1174.057,354.5q-4.312-10.186-9-20.2l5-2.337c3.163,6.725,6.215,13.538,9.09,20.417ZM147.6,353.685l-5.109-2.139q4.346-10.253,9.09-20.307l5.02,2.359Q151.886,343.521,147.6,353.685Zm1007.662-39.2q-5.109-9.823-10.594-19.4l4.8-2.734q5.541,9.69,10.682,19.6Zm-988.907-.617-4.888-2.558c3.428-6.57,6.989-13.1,10.683-19.513l4.777,2.734Q171.482,304.054,166.35,313.866Zm966.967-37.747q-5.872-9.393-12.1-18.521l4.578-3.087q6.27,9.227,12.208,18.675Zm-945.028-.485L183.6,272.7c3.937-6.306,8.028-12.5,12.209-18.631l4.556,3.109C196.23,263.242,192.183,269.394,188.29,275.634Zm920.124-36.027q-6.6-8.863-13.536-17.484l4.335-3.44c4.645,5.8,9.2,11.664,13.646,17.661Zm-895.242-.375-4.445-3.307c4.445-5.953,8.979-11.818,13.668-17.595l4.291,3.462Q219.751,230.357,213.172,239.232Zm867.53-34.021q-7.3-8.334-14.862-16.36l4-3.792c5.131,5.424,10.13,10.914,15.018,16.536Zm-839.818-.331-4.158-3.616q7.332-8.434,15.017-16.514l4,3.792C250.682,193.878,245.75,199.324,240.884,204.88Zm809.452-31.794q-7.9-7.706-16.1-15.125l3.716-4.079c5.507,4.983,10.948,10.076,16.256,15.28Zm-779.063-.265-3.87-3.947q7.962-7.772,16.278-15.28l3.716,4.1Q279.168,165.1,271.272,172.822ZM1017.559,143.5q-8.493-7.045-17.251-13.8l3.362-4.366q8.858,6.78,17.428,13.957Zm-713.465-.265L300.555,139q8.592-7.144,17.428-13.957l3.384,4.366Q312.609,136.155,304.094,143.233Zm678.454-26.657q-9.024-6.383-18.29-12.413l3.03-4.608q9.355,6.085,18.445,12.524Zm-643.377-.265-3.207-4.5q9.156-6.449,18.512-12.546l3.03,4.63Q348.183,109.918,339.171,116.312ZM945.524,92.543q-9.455-5.655-19.175-10.914l2.632-4.851Q938.8,82.1,948.355,87.8Zm-569.219-.331-2.831-4.74q9.588-5.688,19.463-11.024l2.632,4.851C389.066,84.8,382.63,88.465,376.305,92.213Zm530.426-20.7c-6.569-3.263-13.248-6.372-19.971-9.349l2.234-5.049q10.218,4.531,20.192,9.459Zm-491.5-.353L412.8,66.218c6.569-3.241,13.4-6.416,20.281-9.459l2.256,5.049C428.5,64.807,421.755,67.959,415.23,71.156Zm451.2-17.551q-10.284-4.068-20.746-7.761l1.836-5.181q10.583,3.7,20.944,7.805Zm-410.664-.353-2.013-5.115q10.384-4.1,20.967-7.827l1.836,5.225Q466.077,49.174,455.771,53.253ZM824.7,38.944q-10.55-3.208-21.276-6.063l1.393-5.336q10.848,2.877,21.5,6.129Zm-327.063-.309-1.615-5.27c7.1-2.161,14.265-4.211,21.5-6.085l1.393,5.336Q508.2,35.427,497.638,38.635ZM781.927,27.677c-7.188-1.587-14.42-3.065-21.7-4.366l.973-5.424c7.365,1.323,14.663,2.8,21.918,4.388Zm-241.493-.243-1.194-5.38c7.144-1.565,14.509-3.043,21.918-4.366l.973,5.446C554.832,24.414,547.622,25.869,540.434,27.434Zm197.945-7.607c-7.254-1.014-14.6-1.9-21.962-2.624l.531-5.49q11.18,1.124,22.205,2.646Zm-154.4-.132-.752-5.468c7.343-1.014,14.752-1.874,22.183-2.6l.553,5.49Q594.885,18.174,583.982,19.7Zm110.385-4.233c-7.321-.441-14.686-.75-22.117-.882l.111-5.512c7.5.132,14.951.441,22.338.882Zm-66.35-.066-.31-5.512q11.114-.628,22.316-.838l.111,5.512C642.724,14.69,635.337,14.977,628.016,15.4Z" transform="translate(290.496 105.999)"/><g transform="translate(-618.284 -470.252)"><path class="e" d="M1965.189,674.829a3.133,3.133,0,0,1,2.215-5.348h15.511a3.132,3.132,0,1,1,0,6.265H1967.4A3.126,3.126,0,0,1,1965.189,674.829Z"/><path class="e" d="M1972.944,682.584a3.126,3.126,0,0,1-.917-2.215V664.858a3.133,3.133,0,1,1,6.265,0v15.511a3.133,3.133,0,0,1-5.348,2.215Z"/></g><g transform="translate(-421.43 -270.839)"><path class="f" d="M1237.563,711.225a3.133,3.133,0,0,1-2.215-5.348l10.968-10.968a3.132,3.132,0,0,1,4.43,4.43l-10.968,10.968A3.123,3.123,0,0,1,1237.563,711.225Z"/><path class="f" d="M1248.53,711.225a3.119,3.119,0,0,1-2.214-.918l-10.968-10.968a3.132,3.132,0,1,1,4.43-4.43l10.968,10.968a3.133,3.133,0,0,1-2.216,5.348Z"/></g><path class="g" d="M1545.265,772.244a16.755,16.755,0,1,0-19.2,24.288,16.856,16.856,0,0,0,4.6.643,16.762,16.762,0,0,0,14.605-24.931Zm-8.458,19.224a12.664,12.664,0,0,1-17.229-4.885,12.713,12.713,0,0,1-.922-2.1l10.363-5.785a2.046,2.046,0,1,0-1.995-3.574l-9.034,5.043a12.651,12.651,0,0,1,24.74-3.5,1.928,1.928,0,0,0-.383.123l-11.775,6.572a2.047,2.047,0,0,0,2,3.574l10.7-5.973A12.655,12.655,0,0,1,1536.807,791.468Z" transform="translate(-678.883 -396.856)"/><g transform="translate(-1330.12 -2264.666)"><path class="h" d="M1810.177,3240.952a7.608,7.608,0,0,0-3.407-4.086l-22.228-12.687a9.988,9.988,0,0,1-4.7-6.06l-10.3-37.415a24.067,24.067,0,0,0-4.313-8.54l-6.559-8.339a8.006,8.006,0,0,0-13.993,2.745l-2.924,10.2a24.078,24.078,0,0,0-.768,9.537l4.592,38.535a9.988,9.988,0,0,1-2.067,7.387l-15.792,20.139a7.605,7.605,0,0,0-1.611,5.073l.25,5.031a7.567,7.567,0,0,0,7.722,7.228l22-3.378.026,1.965a6.441,6.441,0,0,0,4.133,5.931c2.984,1.113,6.676.39,11.335-.555l1.318-.259,1.319-.257c.432-.083.855-.163,1.27-.244,4.074-.8,7.311-1.567,9.436-3.524a6.441,6.441,0,0,0,1.588-7.052l-.723-1.841,21.4-5.087.255-.08a7.57,7.57,0,0,0,4.421-9.609Zm-27.926,25.536c-1.521,1.4-4.889,2.057-8.79,2.8l-1.331.26-1.33.263c-3.9.784-7.26,1.447-9.2.724a2.488,2.488,0,0,1-1.581-2.3l-.332-25.334a7.194,7.194,0,0,1,13.9-2.725l9.26,23.584A2.488,2.488,0,0,1,1782.251,3266.488Zm23.867-14.875-21.792,5.182-7.089-18.056a11.118,11.118,0,0,0-21.47,4.21l.254,19.411-22.136,3.416a3.663,3.663,0,0,1-3.615-3.5l-.25-5.031a3.671,3.671,0,0,1,.779-2.456l15.793-20.142a13.876,13.876,0,0,0,2.874-10.271l-4.592-38.534a20.223,20.223,0,0,1,.643-7.994l2.925-10.2a4.085,4.085,0,0,1,7.141-1.4l6.558,8.338a20.193,20.193,0,0,1,3.615,7.159l10.3,37.416a13.871,13.871,0,0,0,6.54,8.424l22.23,12.688a3.672,3.672,0,0,1,1.647,1.978l1.668,4.753A3.664,3.664,0,0,1,1806.119,3251.613Z" transform="translate(-1.853 -44.406)"/><path class="h" d="M1769.84,3293.7a1.96,1.96,0,0,0-1.547,2.3l3,15.279a1.961,1.961,0,1,0,3.849-.755l-3-15.279A1.959,1.959,0,0,0,1769.84,3293.7Z" transform="translate(-4.189 -51.769)"/><path class="h" d="M1776.817,3287.268a1.96,1.96,0,0,0-1.547,2.3l5.269,26.872a1.961,1.961,0,1,0,3.849-.755l-5.269-26.872A1.961,1.961,0,0,0,1776.817,3287.268Z" transform="translate(-4.575 -51.412)"/><path class="h" d="M1785.707,3290.593a1.961,1.961,0,0,0-1.547,2.3l1.808,9.221a1.961,1.961,0,1,0,3.849-.755l-1.808-9.221A1.961,1.961,0,0,0,1785.707,3290.593Z" transform="translate(-5.068 -51.596)"/><path class="h" d="M1766.828,3013.192a10.492,10.492,0,1,0-8.278,12.315A10.5,10.5,0,0,0,1766.828,3013.192Zm-9.032,8.466a6.569,6.569,0,1,1,5.183-7.711A6.577,6.577,0,0,1,1757.8,3021.657Z" transform="translate(-2.958 -35.762)"/><path class="h" d="M1838.332,3192.372A7.382,7.382,0,1,0,1847,3198.2,7.39,7.39,0,0,0,1838.332,3192.372Zm2.086,10.638a3.459,3.459,0,1,1,2.728-4.06A3.462,3.462,0,0,1,1840.418,3203.01Z" transform="translate(-7.741 -46.15)"/><path class="h" d="M1761.92,3094.577l-2.4-1.614,1.614-2.4a1.961,1.961,0,0,0-3.255-2.188l-1.614,2.4-2.4-1.615a1.962,1.962,0,1,0-2.189,3.256l2.4,1.614-1.614,2.4a1.961,1.961,0,1,0,3.255,2.188l1.615-2.4,2.4,1.614a1.961,1.961,0,1,0,2.188-3.255Z" transform="translate(-3.222 -40.348)"/><path class="h" d="M1719.535,3232.9a1.961,1.961,0,0,0,.716-3.552l-2.4-1.615,1.615-2.4a1.961,1.961,0,0,0-3.255-2.188l-1.615,2.4-2.4-1.614a1.961,1.961,0,1,0-2.187,3.255l2.4,1.614-1.614,2.4a1.961,1.961,0,1,0,3.255,2.188l1.614-2.4,2.4,1.615A1.956,1.956,0,0,0,1719.535,3232.9Z" transform="translate(-0.914 -47.814)"/><path class="h" d="M1843.6,3404.6l-2.841.558-.556-2.84a1.961,1.961,0,1,0-3.849.755l.556,2.84-2.84.556a1.961,1.961,0,0,0,.755,3.849l2.84-.556.557,2.84a1.961,1.961,0,0,0,3.849-.755l-.557-2.84,2.84-.557a1.962,1.962,0,0,0-.755-3.85Z" transform="translate(-7.747 -57.7)"/><path class="h" d="M1694.25,3284.5a1.992,1.992,0,1,0,2.338,1.571A1.991,1.991,0,0,0,1694.25,3284.5Z" transform="translate(0 -51.258)"/><path class="h" d="M1834.925,3231.595a1.992,1.992,0,1,0-2.338-1.572A1.992,1.992,0,0,0,1834.925,3231.595Z" transform="translate(-7.75 -48.111)"/><circle class="h" cx="1.992" cy="1.992" r="1.992" transform="translate(1784.253 3109.206)"/><path class="h" d="M1719.475,3182.929a1.992,1.992,0,1,0-2.339-1.572A1.992,1.992,0,0,0,1719.475,3182.929Z" transform="translate(-1.355 -45.416)"/><path class="h" d="M1758.817,3051.676a1.992,1.992,0,1,0,2.338,1.571A1.992,1.992,0,0,0,1758.817,3051.676Z" transform="translate(-3.577 -38.361)"/><path class="h" d="M1832.534,3142.641a1.992,1.992,0,1,0-2.338-1.571A1.992,1.992,0,0,0,1832.534,3142.641Z" transform="translate(-7.618 -43.183)"/><path class="h" d="M1790.579,2777.562a16.056,16.056,0,1,0,10.926,5.624A15.916,15.916,0,0,0,1790.579,2777.562Zm6.516,25.26a12.135,12.135,0,0,1-17.1-1.417,12.243,12.243,0,0,1-1.256-1.8l8.682-7.353a1.961,1.961,0,1,0-2.535-2.992l-7.571,6.412a12.126,12.126,0,0,1,22.625-7.856,1.925,1.925,0,0,0-.339.186l-9.86,8.351a1.961,1.961,0,0,0,2.535,2.993l8.96-7.589A12.127,12.127,0,0,1,1797.1,2802.822Z" transform="translate(-4.462 -23.175)"/><g transform="translate(2822.086 2888.926)"><path class="f" d="M2889.6,2936.32a11.137,11.137,0,1,1,15.045,4.664A11.151,11.151,0,0,1,2889.6,2936.32Zm14.472-7.621a5.218,5.218,0,1,0-2.185,7.05A5.225,5.225,0,0,0,2904.076,2928.7Z" transform="translate(-2888.323 -2919.994)"/></g><g transform="translate(2727.809 2569.552)"><g transform="translate(0 4.827)"><path class="e" d="M2788.859,2591.339a2.959,2.959,0,0,1,3.5-4.205l13.994,4.339a2.959,2.959,0,0,1-1.753,5.652l-13.994-4.339A2.956,2.956,0,0,1,2788.859,2591.339Z" transform="translate(-2788.518 -2587)"/></g><g transform="translate(4.827)"><path class="e" d="M2793.97,2600.223a2.946,2.946,0,0,1-.208-2.255l4.34-13.994a2.959,2.959,0,1,1,5.652,1.752l-4.339,13.995a2.959,2.959,0,0,1-5.445.5Z" transform="translate(-2793.628 -2581.89)"/></g></g><g transform="translate(2375.775 2370.986)"><g transform="translate(0 7.286)"><path class="g" d="M2506.338,2385.654a4.466,4.466,0,0,1,5.275-6.346l21.121,6.549a4.466,4.466,0,0,1-2.645,8.531l-21.121-6.549A4.456,4.456,0,0,1,2506.338,2385.654Z" transform="translate(-2505.823 -2379.106)"/></g><g transform="translate(7.286)"><path class="g" d="M2514.052,2399.062a4.453,4.453,0,0,1-.314-3.4l6.549-21.121a4.466,4.466,0,0,1,8.531,2.645l-6.549,21.121a4.466,4.466,0,0,1-8.217.759Z" transform="translate(-2513.536 -2371.393)"/></g></g><g transform="translate(2795.086 2729.536)"><path class="h" d="M2864.146,2756.922a3.005,3.005,0,1,1,1.259-4.06A3.005,3.005,0,0,1,2864.146,2756.922Z" transform="translate(-2859.74 -2751.257)"/></g><g transform="translate(2697.917 2751.324)"><path class="h" d="M2761.28,2779.988a3.005,3.005,0,1,1,1.259-4.06A3.007,3.007,0,0,1,2761.28,2779.988Z" transform="translate(-2756.873 -2774.323)"/></g><g transform="translate(2584.384 2532.84)"><path class="g" d="M2641.087,2548.691a3.006,3.006,0,1,1,1.259-4.06A3.005,3.005,0,0,1,2641.087,2548.691Z" transform="translate(-2636.681 -2543.025)"/></g><g transform="translate(2459.066 2455.754)"><path class="f" d="M2515.152,2483.693a11.137,11.137,0,1,1,11.138-11.138A11.15,11.15,0,0,1,2515.152,2483.693Zm0-16.355a5.218,5.218,0,1,0,5.219,5.217A5.224,5.224,0,0,0,2515.152,2467.338Z" transform="translate(-2504.014 -2461.419)"/></g><g transform="translate(2133.958 2393.85)"><path class="h" d="M2162.8,2412.163a2.96,2.96,0,0,1-2.092-5.052l10.361-10.361a2.959,2.959,0,0,1,4.184,4.185l-10.361,10.36A2.948,2.948,0,0,1,2162.8,2412.163Z" transform="translate(-2159.84 -2395.884)"/><path class="h" d="M2173.159,2412.163a2.944,2.944,0,0,1-2.092-.868l-10.361-10.36a2.959,2.959,0,0,1,4.184-4.185l10.361,10.361a2.96,2.96,0,0,1-2.093,5.052Z" transform="translate(-2159.84 -2395.884)"/></g><g transform="translate(2302.607 2416.913)"><path class="h" d="M2344.39,2423.305a3.006,3.006,0,1,1-3.006-3.006A3.006,3.006,0,0,1,2344.39,2423.305Z" transform="translate(-2338.379 -2420.3)"/></g><g transform="translate(2696.091 2437.321)"><circle class="h" cx="3.006" cy="3.006" r="3.006" transform="translate(0)"/></g><g transform="translate(2276.61 2513.041)"><path class="h" d="M2316.867,2525.07a3.005,3.005,0,1,1-3-3.006A3.005,3.005,0,0,1,2316.867,2525.07Z" transform="translate(-2310.856 -2522.064)"/></g><g transform="translate(2090.195 2510.035)"><path class="h" d="M2119.521,2521.889a3.005,3.005,0,1,1-3.006-3.006A3.006,3.006,0,0,1,2119.521,2521.889Z" transform="translate(-2113.51 -2518.883)"/></g><g transform="translate(1802.548 2672.465)"><path class="f" d="M1814.571,2692.289a3.006,3.006,0,1,1-4.128-1.015A3.006,3.006,0,0,1,1814.571,2692.289Z" transform="translate(-1808.993 -2690.839)"/></g><g transform="translate(1983.275 2458.442)"><path class="i" d="M2006.329,2467.268a3.005,3.005,0,1,1-3.006-3A3,3,0,0,1,2006.329,2467.268Z" transform="translate(-2000.319 -2464.264)"/></g><g transform="translate(2175.359 2438.174)"><path class="h" d="M2209.246,2444.258a3.006,3.006,0,1,1-4.127-1.015A3.006,3.006,0,0,1,2209.246,2444.258Z" transform="translate(-2203.669 -2442.808)"/></g><g transform="translate(2795.087 2718.15)"><circle class="h" cx="3.006" cy="3.006" r="3.006" transform="translate(0)"/></g><g transform="translate(2569.049 2455.436)"><path class="h" d="M2626.458,2464.088a3.006,3.006,0,1,1-3.006-3.006A3.005,3.005,0,0,1,2626.458,2464.088Z" transform="translate(-2620.447 -2461.082)"/></g><g transform="translate(1850.544 2622.628)"><path class="h" d="M1865.381,2639.529a3.005,3.005,0,1,1-4.127-1.016A3,3,0,0,1,1865.381,2639.529Z" transform="translate(-1859.804 -2638.079)"/></g><g transform="translate(1903.068 2448.442)"><path class="g" d="M1794.382,2467.268a3.006,3.006,0,1,1-3.006-3A3.005,3.005,0,0,1,1794.382,2467.268Z" transform="translate(-1788.371 -2464.264)"/></g><g transform="translate(2068.43 3397.56)"><path class="h" d="M2101.607,3480.731a11.137,11.137,0,1,1,11.138-11.138A11.151,11.151,0,0,1,2101.607,3480.731Zm0-16.356a5.218,5.218,0,1,0,5.219,5.218A5.225,5.225,0,0,0,2101.607,3464.375Z" transform="translate(-2090.469 -3458.457)"/></g><g transform="translate(2323.142 3450.751)"><path class="h" d="M2371.255,3537.042a11.137,11.137,0,1,1,11.138-11.137A11.149,11.149,0,0,1,2371.255,3537.042Zm0-16.355a5.219,5.219,0,1,0,5.219,5.218A5.225,5.225,0,0,0,2371.255,3520.687Z" transform="translate(-2360.118 -3514.768)"/></g><g transform="translate(2212.914 3509.818)"><path class="h" d="M2246.384,3593.578a2.959,2.959,0,0,1-2.092-5.052l10.36-10.361a2.959,2.959,0,0,1,4.185,4.184l-10.361,10.361A2.947,2.947,0,0,1,2246.384,3593.578Z" transform="translate(-2243.426 -3577.299)"/><path class="h" d="M2256.745,3593.578a2.952,2.952,0,0,1-2.092-.867l-10.36-10.361a2.959,2.959,0,1,1,4.185-4.184l10.361,10.361a2.959,2.959,0,0,1-2.093,5.052Z" transform="translate(-2243.426 -3577.299)"/></g><g transform="translate(2402.618 3514.014)"><path class="h" d="M2450.265,3584.746a3.005,3.005,0,1,1-3.005-3.006A3.005,3.005,0,0,1,2450.265,3584.746Z" transform="translate(-2444.255 -3581.74)"/></g><g transform="translate(2286.968 3433.309)"><path class="h" d="M2327.834,3499.309a3.006,3.006,0,1,1-3.006-3.006A3.006,3.006,0,0,1,2327.834,3499.309Z" transform="translate(-2321.823 -3496.303)"/></g><g transform="translate(2331.167 3550.39)"><path class="e" d="M2374.625,3623.257a3.006,3.006,0,1,1-3.006-3.006A3.005,3.005,0,0,1,2374.625,3623.257Z" transform="translate(-2368.614 -3620.251)"/></g><g transform="translate(1871.573 3411.9)"><path class="f" d="M1888.077,3476.645a3.006,3.006,0,1,1-3.006-3.006A3.006,3.006,0,0,1,1888.077,3476.645Z" transform="translate(-1882.066 -3473.639)"/></g><g transform="translate(1898.68 3367.39)"><path class="h" d="M1916.774,3429.523a3.006,3.006,0,1,1-3.006-3.006A3.006,3.006,0,0,1,1916.774,3429.523Z" transform="translate(-1910.763 -3426.518)"/></g><g transform="translate(2062.373 3506.672)"><path class="h" d="M2090.067,3576.974a3.006,3.006,0,1,1-3.006-3.006A3.006,3.006,0,0,1,2090.067,3576.974Z" transform="translate(-2084.056 -3573.969)"/></g><g transform="translate(2513.905 3525.198)"><path class="g" d="M2568.079,3596.585a3.006,3.006,0,1,1-3.006-3A3.006,3.006,0,0,1,2568.079,3596.585Z" transform="translate(-2562.068 -3593.581)"/></g><g transform="translate(2294.787 3374.871)"><path class="f" d="M2336.11,3437.444a3.005,3.005,0,1,1-3-3.006A3.006,3.006,0,0,1,2336.11,3437.444Z" transform="translate(-2330.1 -3434.438)"/></g><g transform="translate(2238.301 3490.302)"><path class="h" d="M2276.313,3559.643a3.005,3.005,0,1,1-3.006-3A3.005,3.005,0,0,1,2276.313,3559.643Z" transform="translate(-2270.302 -3556.638)"/></g><path class="g" d="M1899.744,3355.681a24.225,24.225,0,1,0-27.762,35.115,24.366,24.366,0,0,0,6.645.93,24.235,24.235,0,0,0,21.117-36.044Zm-12.229,27.793a18.238,18.238,0,0,1-26.242-10.093l14.983-8.364a2.959,2.959,0,1,0-2.884-5.167l-13.062,7.292a18.291,18.291,0,0,1,35.769-5.059,2.78,2.78,0,0,0-.554.179l-17.024,9.5a2.959,2.959,0,0,0,2.885,5.167l15.47-8.635A18.3,18.3,0,0,1,1887.515,3383.474Z" transform="translate(-8.959 -54.515)"/><g transform="translate(2479.646 3406.951)"><path class="f" d="M2536.938,3490.674a11.137,11.137,0,1,1,11.138-11.138A11.151,11.151,0,0,1,2536.938,3490.674Zm0-16.356a5.219,5.219,0,1,0,5.219,5.218A5.224,5.224,0,0,0,2536.938,3474.318Z" transform="translate(-2525.801 -3468.4)"/></g><g transform="translate(2753.801 3426.219)"><circle class="g" cx="3.006" cy="3.006" r="3.006" transform="translate(0)"/></g><g transform="translate(2686.894 3362.887)"><path class="h" d="M2751.214,3424.757a3.006,3.006,0,1,1-3.006-3.006A3.006,3.006,0,0,1,2751.214,3424.757Z" transform="translate(-2745.203 -3421.751)"/></g><g transform="translate(1757.594 2885.003)"><path class="e" d="M1819.538,2869.7a11.137,11.137,0,1,1,14.267-6.674A11.151,11.151,0,0,1,1819.538,2869.7Zm5.574-15.376a5.218,5.218,0,1,0,3.129,6.684A5.224,5.224,0,0,0,1825.112,2854.32Z" transform="translate(-1812.196 -2848.088)"/></g><g transform="translate(1809.085 2576.851)"><path class="h" d="M1823.257,2611.225a11.137,11.137,0,1,1,14.266-6.675A11.15,11.15,0,0,1,1823.257,2611.225Zm5.574-15.376a5.219,5.219,0,1,0,3.128,6.684A5.224,5.224,0,0,0,1828.831,2595.848Z" transform="translate(-1815.914 -2589.617)"/></g><g transform="translate(2035.006 2432.945)"><g transform="translate(0 4.39)"><path class="i" d="M2055.364,2446.134a2.96,2.96,0,0,1,3.688-4.037l13.775,4.994a2.959,2.959,0,0,1-2.018,5.563l-13.774-4.994A2.952,2.952,0,0,1,2055.364,2446.134Z" transform="translate(-2055.084 -2441.92)"/></g><g transform="translate(4.39)"><path class="i" d="M2060.012,2455.26a2.946,2.946,0,0,1-.1-2.262l4.993-13.774a2.959,2.959,0,1,1,5.564,2.017l-4.993,13.774a2.959,2.959,0,0,1-5.462.246Z" transform="translate(-2059.732 -2437.272)"/></g></g><g transform="translate(1694.633 2996.713)"><g transform="translate(0 4.391)"><path class="f" d="M1695.03,3042.964a2.959,2.959,0,0,1,3.689-4.035l13.774,4.993a2.959,2.959,0,1,1-2.017,5.563l-13.774-4.994A2.942,2.942,0,0,1,1695.03,3042.964Z" transform="translate(-1694.75 -3038.75)"/></g><g transform="translate(4.39)"><path class="f" d="M1699.677,3052.091a2.956,2.956,0,0,1-.1-2.263l4.994-13.774a2.959,2.959,0,0,1,5.563,2.017l-4.994,13.774a2.959,2.959,0,0,1-5.462.246Z" transform="translate(-1699.398 -3034.102)"/></g></g><g transform="translate(1871.342 2709.061)"><g transform="translate(0 3.531)"><path class="h" d="M1883.773,2745.27a2.959,2.959,0,0,1-.245-5.462l13.271-6.209a2.959,2.959,0,0,1,2.508,5.36l-13.272,6.21A2.951,2.951,0,0,1,1883.773,2745.27Z" transform="translate(-1881.822 -2733.318)"/></g><g transform="translate(3.531)"><path class="h" d="M1893.72,2748.594a2.949,2.949,0,0,1-1.671-1.528l-6.209-13.271a2.959,2.959,0,1,1,5.36-2.508l6.209,13.271a2.959,2.959,0,0,1-3.689,4.036Z" transform="translate(-1885.56 -2729.581)"/></g></g><g transform="translate(1870.719 2497.239)"><path class="h" d="M1886.995,2509.367a3.006,3.006,0,1,1-1.8-3.85A3.007,3.007,0,0,1,1886.995,2509.367Z" transform="translate(-1881.163 -2505.336)"/></g><g transform="translate(1791.15 2507.085)"><path class="h" d="M1802.758,2519.792a3.005,3.005,0,1,1-1.8-3.851A3.005,3.005,0,0,1,1802.758,2519.792Z" transform="translate(-1796.927 -2515.76)"/></g><g transform="translate(2009.003 2527.293)"><path class="h" d="M2033.388,2541.185a3.006,3.006,0,1,1-1.8-3.85A3.006,3.006,0,0,1,2033.388,2541.185Z" transform="translate(-2027.556 -2537.154)"/></g><g transform="translate(2079.238 2554.235)"><path class="h" d="M2107.742,2569.705a3.005,3.005,0,1,1-1.8-3.85A3.006,3.006,0,0,1,2107.742,2569.705Z" transform="translate(-2101.91 -2565.675)"/></g><g transform="translate(1734.399 2654.809)"><path class="h" d="M1742.68,2676.177a3.006,3.006,0,1,1-1.8-3.849A3.006,3.006,0,0,1,1742.68,2676.177Z" transform="translate(-1736.848 -2672.147)"/></g><g transform="translate(1971.532 2545.682)"><path class="g" d="M1993.72,2560.651a3.006,3.006,0,1,1-1.8-3.849A3.005,3.005,0,0,1,1993.72,2560.651Z" transform="translate(-1987.887 -2556.621)"/></g><g transform="translate(1928.303 2607.104)"><path class="h" d="M1947.955,2625.674a3.005,3.005,0,1,1-1.8-3.849A3.005,3.005,0,0,1,1947.955,2625.674Z" transform="translate(-1942.123 -2621.645)"/></g><g transform="translate(1968.526 2669.458)"><path class="h" d="M1990.537,2691.687a3.006,3.006,0,1,1-1.8-3.85A3.006,3.006,0,0,1,1990.537,2691.687Z" transform="translate(-1984.705 -2687.656)"/></g><path class="h" d="M2798.179,3309.738a7.787,7.787,0,1,0,7.789,7.786A7.8,7.8,0,0,0,2798.179,3309.738Zm0,9.656a1.868,1.868,0,1,1,1.87-1.87A1.871,1.871,0,0,1,2798.179,3319.393Z" transform="translate(-60.812 -52.659)"/><path class="h" d="M2785.707,3317.618a2.333,2.333,0,1,0,2.332,2.332A2.333,2.333,0,0,0,2785.707,3317.618Z" transform="translate(-60.423 -53.095)"/><path class="h" d="M2779.833,3305.608a20.49,20.49,0,1,0,28.978,0A20.512,20.512,0,0,0,2779.833,3305.608Zm11.452,28.712a3.138,3.138,0,0,1,4.71.181A14.629,14.629,0,0,1,2791.286,3334.321Zm17.343-11.537a2.331,2.331,0,0,0-2.324,2.331,2.3,2.3,0,0,0,.841,1.755,13.129,13.129,0,0,1-5.356,5.686,9.16,9.16,0,0,0-16.044-.745,14.4,14.4,0,0,1-1.727-1.408,14.572,14.572,0,1,1,24.611-7.618Z" transform="translate(-59.895 -52.098)"/><path class="h" d="M2802.253,3288.949a2.958,2.958,0,0,0,4.185.064l108.371-105.17a2.959,2.959,0,1,0-4.121-4.248l-108.372,105.169A2.958,2.958,0,0,0,2802.253,3288.949Z" transform="translate(-61.423 -45.403)"/><path class="h" d="M2814.929,3294.586a2.957,2.957,0,0,0,4.185,0l115.224-115.226a2.959,2.959,0,0,0-4.185-4.185L2814.929,3290.4A2.958,2.958,0,0,0,2814.929,3294.586Z" transform="translate(-62.123 -45.156)"/><path class="h" d="M2926.235,3195.136l-105.146,108.342a2.96,2.96,0,0,0,4.249,4.121l105.146-108.342a2.959,2.959,0,0,0-4.248-4.122Z" transform="translate(-62.466 -46.26)"/><g transform="translate(2756.946 2738.865)"><path class="h" d="M2947.137,2796.222a1.723,1.723,0,1,0,0-3.446h-2.543v-2.543a1.723,1.723,0,0,0-3.446,0v2.543h-2.542a1.723,1.723,0,1,0,0,3.446h2.542v2.543a1.723,1.723,0,0,0,3.446,0v-2.543Z" transform="translate(-2964.873 -2805.649)"/><path class="h" d="M2837.75,2835.991a1.722,1.722,0,0,0-2.436,0l-1.8,1.8-1.8-1.8a1.723,1.723,0,0,0-2.436,2.436l1.8,1.8-1.8,1.8a1.722,1.722,0,1,0,2.436,2.436l1.8-1.8,1.8,1.8a1.722,1.722,0,0,0,2.436-2.436l-1.8-1.8,1.8-1.8A1.721,1.721,0,0,0,2837.75,2835.991Z" transform="translate(-2790.885 -2763.251)"/><path class="h" d="M2868.179,2881.067h-2.543v-2.542a1.723,1.723,0,1,0-3.446,0v2.542h-2.543a1.723,1.723,0,0,0,0,3.447h2.543v2.542a1.723,1.723,0,1,0,3.446,0v-2.542h2.543a1.723,1.723,0,0,0,0-3.447Z" transform="translate(-2758.892 -2735.54)"/><path class="h" d="M2882.659,2770.105a1.72,1.72,0,0,0,2.436,0l1.8-1.8,1.8,1.8a1.723,1.723,0,0,0,2.436-2.436l-1.8-1.8,1.8-1.8a1.723,1.723,0,0,0-2.436-2.436l-1.8,1.8-1.8-1.8a1.723,1.723,0,0,0-2.436,2.436l1.8,1.8-1.8,1.8A1.723,1.723,0,0,0,2882.659,2770.105Z" transform="translate(-2871.511 -2833.132)"/><path class="h" d="M2901.09,2794.646a1.75,1.75,0,1,0-1.75-1.749A1.75,1.75,0,0,0,2901.09,2794.646Z" transform="translate(-2823.793 -2762.795)"/><path class="h" d="M2954.768,2824.994a1.75,1.75,0,1,0,1.75,1.75A1.749,1.749,0,0,0,2954.768,2824.994Z" transform="translate(-2856.767 -2764.67)"/><path class="h" d="M2821.113,2878.1a1.75,1.75,0,1,0,1.75,1.749A1.75,1.75,0,0,0,2821.113,2878.1Z" transform="translate(-2819.363 -2767.612)"/><path class="h" d="M2948.692,2885.8a1.75,1.75,0,1,0,1.75,1.75A1.75,1.75,0,0,0,2948.692,2885.8Z" transform="translate(-2826.43 -2768.038)"/><circle class="h" cx="1.75" cy="1.75" r="1.75" transform="translate(11.883 39.162)"/></g><g transform="translate(2865.333 3247.665)"><path class="f" d="M2936.478,3317.78a11.137,11.137,0,1,1,15.636,1.887A11.149,11.149,0,0,1,2936.478,3317.78Zm12.867-10.1a5.219,5.219,0,1,0-.885,7.328A5.223,5.223,0,0,0,2949.344,3307.683Z" transform="translate(-2934.106 -3299.772)"/></g><g transform="translate(2823.646 2998.655)"><g transform="translate(1.241)"><path class="i" d="M2891.31,3038.763a2.959,2.959,0,0,1,5.265-1.473l9.045,11.527a2.959,2.959,0,0,1-4.656,3.653l-9.044-11.526A2.951,2.951,0,0,1,2891.31,3038.763Z" transform="translate(-2891.288 -3036.158)"/></g><g transform="translate(0 1.241)"><path class="i" d="M2890,3049.122a2.947,2.947,0,0,1,1.112-1.973l11.526-9.045a2.959,2.959,0,1,1,3.654,4.655l-11.527,9.045a2.959,2.959,0,0,1-4.764-2.682Z" transform="translate(-2889.974 -3037.472)"/></g></g><g transform="translate(2757.13 3162.957)"><path class="h" d="M2824.419,3215.466a3.006,3.006,0,1,1,.509-4.22A3.005,3.005,0,0,1,2824.419,3215.466Z" transform="translate(-2819.558 -3210.096)"/></g><g transform="translate(2800.52 3121.269)"><path class="h" d="M2870.353,3171.333a3.005,3.005,0,1,1,.51-4.219A3,3,0,0,1,2870.353,3171.333Z" transform="translate(-2865.493 -3165.963)"/></g><g transform="translate(2713.66 3057.011)"><path class="g" d="M2778.4,3103.307a3.005,3.005,0,1,1,.509-4.219A3,3,0,0,1,2778.4,3103.307Z" transform="translate(-2773.538 -3097.937)"/></g><g transform="translate(2701.867 3125.589)"><path class="h" d="M2765.915,3175.907a3.006,3.006,0,1,1,.509-4.22A3.007,3.007,0,0,1,2765.915,3175.907Z" transform="translate(-2761.053 -3170.536)"/></g><g transform="translate(1830.901 3224.45)"><g transform="translate(0 6.469)"><path class="i" d="M1839.421,3288.254a4.361,4.361,0,0,1,5.436-5.947l20.3,7.358a4.36,4.36,0,1,1-2.972,8.2l-20.3-7.359A4.351,4.351,0,0,1,1839.421,3288.254Z" transform="translate(-1839.009 -3282.044)"/></g><g transform="translate(6.47)"><path class="i" d="M1846.27,3301.7a4.347,4.347,0,0,1-.149-3.334l7.358-20.3a4.36,4.36,0,0,1,8.2,2.973l-7.359,20.3a4.36,4.36,0,0,1-8.049.363Z" transform="translate(-1845.858 -3275.195)"/></g></g><g transform="translate(2730.926 2654.135)"><g transform="translate(0 3.491)"><path class="f" d="M2809.019,2675.3a2.959,2.959,0,0,1,.268,5.461l-13.245,6.263a2.958,2.958,0,1,1-2.53-5.349l13.245-6.265A2.948,2.948,0,0,1,2809.019,2675.3Z" transform="translate(-2791.817 -2675.129)"/></g><g transform="translate(3.491)"><path class="f" d="M2799.47,2671.607a2.95,2.95,0,0,1,1.677,1.522l6.264,13.245a2.959,2.959,0,1,1-5.349,2.53l-6.264-13.245a2.96,2.96,0,0,1,3.672-4.052Z" transform="translate(-2795.513 -2671.434)"/></g></g><g transform="translate(2632.855 2591.458)"><path class="h" d="M2688.171,2607.074a3.006,3.006,0,1,1,1.818,3.843A3.006,3.006,0,0,1,2688.171,2607.074Z" transform="translate(-2687.995 -2605.081)"/></g><g transform="translate(2720.437 2538.904)"><path class="f" d="M2780.889,2551.439a3.006,3.006,0,1,1,1.818,3.843A3.006,3.006,0,0,1,2780.889,2551.439Z" transform="translate(-2780.713 -2549.445)"/></g><g transform="translate(2621.974 2475.457)"><path class="h" d="M2676.652,2484.271a3.005,3.005,0,1,1,1.817,3.843A3.006,3.006,0,0,1,2676.652,2484.271Z" transform="translate(-2676.475 -2482.277)"/></g><g transform="translate(2224.473 2460.913)"><path class="h" d="M2261.674,2469.885a3.006,3.006,0,1,1-3.006-3.005A3.006,3.006,0,0,1,2261.674,2469.885Z" transform="translate(-2255.663 -2466.879)"/></g><g transform="translate(2218.462 2401.041)"><path class="h" d="M2255.31,2406.5a3.006,3.006,0,1,1-3.006-3.005A3.006,3.006,0,0,1,2255.31,2406.5Z" transform="translate(-2249.299 -2403.497)"/></g><g transform="translate(2114.29 2429.709)"><path class="g" d="M2145.029,2436.852a3.005,3.005,0,1,1-3.006-3.006A3,3,0,0,1,2145.029,2436.852Z" transform="translate(-2139.018 -2433.846)"/></g><g transform="translate(2160.96 2481.32)"><path class="f" d="M2194.436,2491.49a3.006,3.006,0,1,1-3.006-3.006A3.006,3.006,0,0,1,2194.436,2491.49Z" transform="translate(-2188.425 -2488.484)"/></g><g transform="translate(1989.541 3449.867)"><path class="e" d="M2018.091,3536.106a11.137,11.137,0,1,1,11.137-11.138A11.151,11.151,0,0,1,2018.091,3536.106Zm0-16.356a5.219,5.219,0,1,0,5.219,5.218A5.224,5.224,0,0,0,2018.091,3519.75Z" transform="translate(-2006.953 -3513.832)"/></g><g transform="translate(1918.497 3334.484)"><path class="h" d="M1942.881,3413.957a11.137,11.137,0,1,1,11.137-11.138A11.151,11.151,0,0,1,1942.881,3413.957Zm0-16.355a5.219,5.219,0,1,0,5.219,5.217A5.224,5.224,0,0,0,1942.881,3397.6Z" transform="translate(-1931.743 -3391.683)"/></g><g transform="translate(1997.974 3397.747)"><path class="h" d="M2021.891,3461.661a3.005,3.005,0,1,1-3.006-3.006A3.006,3.006,0,0,1,2021.891,3461.661Z" transform="translate(-2015.88 -3458.656)"/></g><g transform="translate(1926.523 3434.124)"><path class="h" d="M1946.25,3500.171a3.006,3.006,0,1,1-3.006-3.006A3.005,3.005,0,0,1,1946.25,3500.171Z" transform="translate(-1940.239 -3497.166)"/></g><g transform="translate(2219.444 3440.135)"><path class="h" d="M2256.349,3506.534a3.005,3.005,0,1,1-3-3.005A3.005,3.005,0,0,1,2256.349,3506.534Z" transform="translate(-2250.339 -3503.529)"/></g><g transform="translate(2213.433 3380.264)"><path class="h" d="M2249.986,3443.153a3.006,3.006,0,1,1-3.006-3.006A3.005,3.005,0,0,1,2249.986,3443.153Z" transform="translate(-2243.975 -3440.147)"/></g><g transform="translate(2109.26 3408.932)"><path class="g" d="M2139.7,3473.5a3.006,3.006,0,1,1-3.006-3A3.006,3.006,0,0,1,2139.7,3473.5Z" transform="translate(-2133.693 -3470.496)"/></g><g transform="translate(2155.931 3460.543)"><path class="h" d="M2189.113,3528.139a3.006,3.006,0,1,1-3.006-3.006A3.006,3.006,0,0,1,2189.113,3528.139Z" transform="translate(-2183.101 -3525.134)"/></g><g transform="translate(2758.563 3119.62)"><g transform="translate(0 1.834)"><path class="i" d="M2821.121,3169.642a2.959,2.959,0,0,1,4.6-2.953l12.03,8.363a2.959,2.959,0,0,1-3.378,4.859l-12.031-8.363A2.95,2.95,0,0,1,2821.121,3169.642Z" transform="translate(-2821.074 -3166.159)"/></g><g transform="translate(1.833)"><path class="i" d="M2823.062,3179.731a2.952,2.952,0,0,1,.483-2.213l8.364-12.031a2.959,2.959,0,1,1,4.859,3.378L2828.4,3180.9a2.959,2.959,0,0,1-5.342-1.165Z" transform="translate(-2823.015 -3164.217)"/></g></g><g transform="translate(2555.07 3396.151)"><g transform="translate(0 5.914)"><path class="h" d="M2606.917,3471.209a2.96,2.96,0,0,1,1.166-5.342l14.42-2.593a2.959,2.959,0,1,1,1.048,5.824l-14.42,2.593A2.948,2.948,0,0,1,2606.917,3471.209Z" transform="translate(-2605.647 -3463.227)"/></g><g transform="translate(5.913)"><path class="h" d="M2615.771,3476.776a2.951,2.951,0,0,1-1.223-1.906l-2.593-14.42a2.959,2.959,0,1,1,5.824-1.048l2.593,14.42a2.959,2.959,0,0,1-4.6,2.954Z" transform="translate(-2611.908 -3456.966)"/></g></g><g transform="translate(2769 3351.595)"><path class="h" d="M2837.6,3414.519a3.005,3.005,0,1,1-.752-4.184A3,3,0,0,1,2837.6,3414.519Z" transform="translate(-2832.124 -3409.797)"/></g><g transform="translate(2798.239 3299.005)"><path class="h" d="M2868.551,3358.844a3.005,3.005,0,1,1-.752-4.184A3.006,3.006,0,0,1,2868.551,3358.844Z" transform="translate(-2863.077 -3354.122)"/></g><g transform="translate(2696.341 3263.082)"><path class="g" d="M2760.677,3320.814a3.005,3.005,0,1,1-.753-4.184A3.006,3.006,0,0,1,2760.677,3320.814Z" transform="translate(-2755.203 -3316.093)"/></g><g transform="translate(2705.201 3332.099)"><path class="h" d="M2770.057,3393.879a3.005,3.005,0,1,1-.752-4.184A3.006,3.006,0,0,1,2770.057,3393.879Z" transform="translate(-2764.583 -3389.157)"/></g><g transform="translate(2592.934 3394.635)"><path class="h" d="M2651.206,3460.083a3.006,3.006,0,1,1-.752-4.184A3.006,3.006,0,0,1,2651.206,3460.083Z" transform="translate(-2645.732 -3455.361)"/></g><g transform="translate(855.567 1464.551) rotate(22)"><g transform="translate(1353.794 925.519)"><path class="h" d="M1390.923,1013.273a2.355,2.355,0,0,1-1.675-.7,2.388,2.388,0,0,1,0-3.366l8.292-8.334a2.359,2.359,0,0,1,3.349,0,2.388,2.388,0,0,1,0,3.367l-8.292,8.333A2.355,2.355,0,0,1,1390.923,1013.273Z" transform="translate(-1388.554 -1000.178)"/><path class="h" d="M1399.215,1013.273a2.355,2.355,0,0,1-1.675-.7l-8.292-8.333a2.388,2.388,0,0,1,0-3.367,2.359,2.359,0,0,1,3.349,0l8.292,8.334a2.387,2.387,0,0,1,0,3.366A2.356,2.356,0,0,1,1399.215,1013.273Z" transform="translate(-1388.554 -1000.178)"/></g><g transform="translate(1273.304 701.7)"><path class="f" d="M1266.8,707.247a2.355,2.355,0,0,1-1.675-.7,2.388,2.388,0,0,1,0-3.366l8.292-8.334a2.359,2.359,0,0,1,3.349,0,2.387,2.387,0,0,1,0,3.366l-8.292,8.334A2.356,2.356,0,0,1,1266.8,707.247Z" transform="translate(-1264.43 -694.153)"/><path class="f" d="M1275.091,707.247a2.355,2.355,0,0,1-1.675-.7l-8.292-8.334a2.388,2.388,0,0,1,0-3.366,2.359,2.359,0,0,1,3.349,0l8.292,8.334a2.387,2.387,0,0,1,0,3.366A2.356,2.356,0,0,1,1275.091,707.247Z" transform="translate(-1264.43 -694.153)"/></g><g transform="translate(1488.776 944.071)"><path class="h" d="M1571.9,1027.135a2.405,2.405,0,1,1-2.406-2.418A2.411,2.411,0,0,1,1571.9,1027.135Z" transform="translate(-1567.094 -1024.717)"/></g><g transform="translate(1338.914 722.372)"><path class="h" d="M1373.684,733.9a2.406,2.406,0,1,1-2.406-2.417A2.412,2.412,0,0,1,1373.684,733.9Z" transform="translate(-1368.873 -731.478)"/></g><g transform="translate(1467.968 1021.394)"><path class="h" d="M1544.382,1129.409a2.406,2.406,0,1,1-2.406-2.418A2.412,2.412,0,0,1,1544.382,1129.409Z" transform="translate(-1539.571 -1126.991)"/></g><g transform="translate(1318.766 1018.976)"><path class="h" d="M1347.035,1126.211a2.406,2.406,0,1,1-2.406-2.418A2.412,2.412,0,0,1,1347.035,1126.211Z" transform="translate(-1342.224 -1123.793)"/></g><g transform="translate(1309.767 785.909)"><path class="h" d="M1335.132,817.934a2.405,2.405,0,1,1-2.4-2.417A2.411,2.411,0,0,1,1335.132,817.934Z" transform="translate(-1330.321 -815.517)"/></g><g transform="translate(1378.396 807.275)"><path class="h" d="M1425.906,846.2a2.405,2.405,0,1,1-2.406-2.418A2.412,2.412,0,0,1,1425.906,846.2Z" transform="translate(-1421.095 -843.778)"/></g><g transform="translate(1444.822 829.077)"><path class="h" d="M1575.086,850.259a2.406,2.406,0,1,1-2.406-2.418A2.412,2.412,0,0,1,1575.086,850.259Z" transform="translate(-1570.275 -847.841)"/></g><g transform="translate(1397.26 1105.859)"><path class="i" d="M1263.844,1071.318a2.406,2.406,0,1,1-2.406-2.418A2.412,2.412,0,0,1,1263.844,1071.318Z" transform="translate(-1259.033 -1068.9)"/></g><g transform="translate(1422.913 985.859)"><path class="h" d="M1484.789,1082.407a2.406,2.406,0,1,1-2.406-2.418A2.412,2.412,0,0,1,1484.789,1082.407Z" transform="translate(-1479.978 -1079.989)"/></g><g transform="translate(1279.912 813.939)"><g transform="translate(0 8.415)"><path class="i" d="M1247.062,930.121a3.4,3.4,0,0,1,2.391-5.8H1266.2a3.4,3.4,0,0,1,0,6.8h-16.745A3.363,3.363,0,0,1,1247.062,930.121Z" transform="translate(-1246.072 -924.318)"/></g><g transform="translate(8.373)"><path class="i" d="M1258.137,935.82a3.4,3.4,0,0,1-.99-2.4V916.587a3.382,3.382,0,1,1,6.764,0v16.829a3.379,3.379,0,0,1-5.774,2.4Z" transform="translate(-1257.147 -913.188)"/></g></g></g><g transform="matrix(0.819, 0.574, -0.574, 0.819, 2069.935, 1619.027)"><path class="h" d="M1391.687,1017.5a3.114,3.114,0,0,1-2.215-.923,3.158,3.158,0,0,1,0-4.452l10.968-11.023a3.12,3.12,0,0,1,4.43,0,3.159,3.159,0,0,1,0,4.453l-10.968,11.022A3.114,3.114,0,0,1,1391.687,1017.5Z"/><path class="h" d="M1402.655,1017.5a3.115,3.115,0,0,1-2.215-.923l-10.968-11.022a3.159,3.159,0,0,1,0-4.453,3.12,3.12,0,0,1,4.43,0l10.968,11.023a3.158,3.158,0,0,1,0,4.452A3.116,3.116,0,0,1,1402.655,1017.5Z"/><path class="f" d="M1267.563,711.473a3.114,3.114,0,0,1-2.215-.923,3.158,3.158,0,0,1,0-4.452l10.968-11.023a3.12,3.12,0,0,1,4.43,0,3.158,3.158,0,0,1,0,4.452l-10.968,11.023A3.116,3.116,0,0,1,1267.563,711.473Z"/><path class="f" d="M1278.531,711.473a3.114,3.114,0,0,1-2.215-.923l-10.968-11.023a3.158,3.158,0,0,1,0-4.452,3.12,3.12,0,0,1,4.43,0l10.968,11.023a3.158,3.158,0,0,1,0,4.452A3.116,3.116,0,0,1,1278.531,711.473Z"/><path class="h" d="M1375.237,734.675a3.182,3.182,0,1,1-3.182-3.2A3.19,3.19,0,0,1,1375.237,734.675Z"/><path class="h" d="M1336.684,818.714a3.181,3.181,0,1,1-3.181-3.2A3.19,3.19,0,0,1,1336.684,818.714Z"/><path class="h" d="M1427.458,846.976a3.182,3.182,0,1,1-3.182-3.2A3.19,3.19,0,0,1,1427.458,846.976Z"/><path class="i" d="M1265.4,1072.1a3.182,3.182,0,1,1-3.182-3.2A3.19,3.19,0,0,1,1265.4,1072.1Z"/><g transform="translate(91.942 174.893)"><path class="i" d="M1247.382,931.993a4.5,4.5,0,0,1,3.163-7.675h22.149a4.5,4.5,0,0,1,0,8.991h-22.149A4.447,4.447,0,0,1,1247.382,931.993Z"/><path class="i" d="M1258.456,943.123a4.492,4.492,0,0,1-1.309-3.179v-22.26a4.473,4.473,0,1,1,8.946,0v22.26a4.47,4.47,0,0,1-7.637,3.179Z"/></g></g></g></g></svg>