<?xml version="1.0" encoding="utf-8"?>
<!-- Generator: Adobe Illustrator 25.3.1, SVG Export Plug-In . SVG Version: 6.00 Build 0)  -->
<svg version="1.1" id="DATABASE" xmlns="http://www.w3.org/2000/svg" xmlns:xlink="http://www.w3.org/1999/xlink" x="0px" y="0px"
	 viewBox="0 0 1800 1800" style="enable-background:new 0 0 1800 1800;" xml:space="preserve">
<style type="text/css">
	.st0{fill:#FFFFFF;}
</style>
<path class="st0" d="M1801.9,296.5c0-190.3-461.2-293-895.2-293c-434,0-895.2,102.7-895.2,293v0l0,0v1210
	c0,190.3,461.2,293,895.2,293c434,0,895.2-102.7,895.2-293V296.5L1801.9,296.5L1801.9,296.5z M1739,1202.3
	c0,53.2-86.2,111.1-230.6,154.8c-160.3,48.5-373.9,75.3-601.6,75.3c-227.7,0-441.4-26.7-601.6-75.3
	c-144.4-43.7-230.6-101.6-230.6-154.8v-190.6C215.1,1128.9,569.2,1191,906.7,1191c337.6,0,691.6-62.2,832.2-179.3V1202.3z M1739,898
	c0,53.2-86.2,111.1-230.6,154.8c-160.3,48.5-373.9,75.3-601.6,75.3c-227.7,0-441.4-26.7-601.6-75.3
	C160.7,1009.1,74.5,951.2,74.5,898V707.4c140.6,117.2,494.7,179.3,832.2,179.3c337.6,0,691.6-62.2,832.2-179.3V898z M1739,593.7
	c0,53.2-86.2,111.1-230.6,154.8c-160.3,48.5-373.9,75.3-601.6,75.3c-227.7,0-441.4-26.7-601.6-75.3C160.7,704.8,74.5,647,74.5,593.7
	V410.2c140.6,117.2,494.7,179.3,832.2,179.3c337.6,0,691.6-62.2,832.2-179.3V593.7z M305.1,141.7C465.4,93.2,679,66.5,906.7,66.5
	c227.7,0,441.4,26.7,601.6,75.2c144.4,43.7,230.6,101.6,230.6,154.8c0,53.2-86.2,111.1-230.6,154.8
	c-160.3,48.5-373.9,75.3-601.6,75.3c-227.7,0-441.4-26.7-601.6-75.3C160.7,407.6,74.5,349.7,74.5,296.5
	C74.5,243.3,160.7,185.4,305.1,141.7z M1508.4,1661.4c-160.3,48.5-373.9,75.3-601.6,75.3c-227.7,0-441.4-26.7-601.6-75.3
	c-144.4-43.7-230.6-101.6-230.6-154.8V1316c140.6,117.2,494.7,179.3,832.2,179.3c337.6,0,691.6-62.2,832.2-179.3v190.6
	C1739,1559.8,1652.8,1617.7,1508.4,1661.4z"/>
</svg>
