<svg xmlns="http://www.w3.org/2000/svg" width="49.786" height="41.488" viewBox="0 0 49.786 41.488"><defs><style>.a{fill:#fff;fill-rule:evenodd;}</style></defs><path class="a" d="M889.637,760.3a.732.732,0,0,1-.732.732H873.286a.732.732,0,0,1,0-1.464H888.9A.732.732,0,0,1,889.637,760.3Zm0,10.738a.732.732,0,0,1-.732.732H873.286a.732.732,0,0,1,0-1.464H888.9A.732.732,0,0,1,889.637,771.042Zm0-5.369a.732.732,0,0,1-.732.732H873.286a.732.732,0,0,1,0-1.464H888.9A.732.732,0,0,1,889.637,765.673Zm-24.4,5.369a.732.732,0,0,1-.732.732H848.881a.732.732,0,0,1,0-1.464H864.5A.732.732,0,0,1,865.232,771.042Zm0-10.738a.732.732,0,0,1-.732.732h-9.762a.732.732,0,0,1,0-1.464H864.5A.732.732,0,0,1,865.232,760.3Zm0,5.369a.732.732,0,0,1-.732.732H848.881a.732.732,0,1,1,0-1.464H864.5A.732.732,0,0,1,865.232,765.673Zm27.089,11.47a1.345,1.345,0,0,1-1.464,1.464H873.774a5.683,5.683,0,0,0-4.149,2.271V744.929a1.345,1.345,0,0,1,1.464-1.464h19.768a1.345,1.345,0,0,1,1.464,1.464Zm-28.31,1.464H846.929a1.345,1.345,0,0,1-1.464-1.464V744.929a1.345,1.345,0,0,1,1.464-1.464H866.7a1.345,1.345,0,0,1,1.464,1.464v35.948A5.683,5.683,0,0,0,864.012,778.607ZM890.857,742H871.089a3.111,3.111,0,0,1-4.393,0H846.929A2.8,2.8,0,0,0,844,744.929v32.214a2.8,2.8,0,0,0,2.929,2.929h17.083c1.707,0,2.98,1.65,3.664,2.536.437.567.678.88,1.136.88a.6.6,0,0,0,.063,0,.4.4,0,0,0,.1,0c.457,0,.7-.312,1.136-.88.684-.886,1.957-2.536,3.664-2.536h17.083a2.8,2.8,0,0,0,2.929-2.929V744.929A2.8,2.8,0,0,0,890.857,742Z" transform="translate(-844 -742)"/></svg>