<svg xmlns="http://www.w3.org/2000/svg" width="42" height="47" viewBox="0 0 42 47"><defs><style>.a{fill:#fff;}</style></defs><g transform="translate(-52 -1329)"><path class="a" d="M90.848,1333.273h-6.3v-3.2a1.05,1.05,0,1,0-2.1,0v3.2H63.55v-3.2a1.05,1.05,0,1,0-2.1,0v3.2h-6.3A3.182,3.182,0,0,0,52,1336.479v36.314A3.188,3.188,0,0,0,55.158,1376H79.3a6.771,6.771,0,0,0,4.33-1.824l8.576-8.725A7.012,7.012,0,0,0,94,1361.045v-24.56A3.187,3.187,0,0,0,90.848,1333.273Zm-8.4,39.081v-7.044a1.053,1.053,0,0,1,1.042-1.06h6.924Zm9.45-11.316a1.061,1.061,0,0,1-1.042,1.077H83.492a3.172,3.172,0,0,0-3.142,3.2v7.494a1.061,1.061,0,0,1-1.058,1.06H55.158a1.066,1.066,0,0,1-1.058-1.07v-36.314a1.063,1.063,0,0,1,1.052-1.07h6.3v3.4a3.15,3.15,0,1,0,2.1,0v-3.4h18.9v3.4a3.15,3.15,0,1,0,2.1,0v-3.4h6.3a1.066,1.066,0,0,1,1.052,1.077ZM62.5,1340.75a1.068,1.068,0,1,1-1.05,1.068A1.06,1.06,0,0,1,62.5,1340.75Zm21,0a1.068,1.068,0,1,1-1.05,1.068A1.06,1.06,0,0,1,83.5,1340.75Z"/></g></svg>